<?xml version="1.0" encoding="UTF-8" standalone="no"?>
<!-- Created with Inkscape (http://www.inkscape.org/) -->

<svg
   xmlns:dc="http://purl.org/dc/elements/1.1/"
   xmlns:cc="http://creativecommons.org/ns#"
   xmlns:rdf="http://www.w3.org/1999/02/22-rdf-syntax-ns#"
   xmlns:svg="http://www.w3.org/2000/svg"
   xmlns="http://www.w3.org/2000/svg"
   xmlns:sodipodi="http://sodipodi.sourceforge.net/DTD/sodipodi-0.dtd"
   xmlns:inkscape="http://www.inkscape.org/namespaces/inkscape"
   width="64px"
   height="64px"
   id="svg3889"
   version="1.1"
   inkscape:version="0.48.4 r9939"
   sodipodi:docname="Icon.svg">
  <defs
     id="defs3891" />
  <sodipodi:namedview
     id="base"
     pagecolor="#ffffff"
     bordercolor="#666666"
     borderopacity="1.0"
     inkscape:pageopacity="0.0"
     inkscape:pageshadow="2"
     inkscape:zoom="11"
     inkscape:cx="18.35337"
     inkscape:cy="34.121979"
     inkscape:current-layer="layer1"
     showgrid="true"
     inkscape:document-units="px"
     inkscape:grid-bbox="true"
     inkscape:window-width="1920"
     inkscape:window-height="1017"
     inkscape:window-x="-8"
     inkscape:window-y="-8"
     inkscape:window-maximized="1" />
  <metadata
     id="metadata3894">
    <rdf:RDF>
      <cc:Work
         rdf:about="">
        <dc:format>image/svg+xml</dc:format>
        <dc:type
           rdf:resource="http://purl.org/dc/dcmitype/StillImage" />
        <dc:title />
      </cc:Work>
    </rdf:RDF>
  </metadata>
  <g
     id="layer1"
     inkscape:label="Layer 1"
     inkscape:groupmode="layer">
    <path
       style="fill:#95d352;fill-opacity:1;stroke:#000000;stroke-width:0.25318831px;stroke-linecap:butt;stroke-linejoin:miter;stroke-opacity:1"
       d="M 19.792659,34.102408 C 13.555071,36.567387 4.752979,41.380466 4.9694062,48.64798 5.1786301,55.673305 14.039365,59.381999 20.104728,61.653428 27.684912,64.492144 36.716847,64.798783 44.133998,61.482306 49.892957,58.907273 57.782416,54.086971 57.557407,47.270777 57.349022,40.957953 49.666799,37.394582 44.29004,35.129158 36.661863,31.915112 27.480541,31.064299 19.792659,34.102408 z"
       id="path2993"
       inkscape:connector-curvature="0"
       sodipodi:nodetypes="aaaaaaa" />
    <path
       style="fill:#000000;fill-opacity:1;stroke:#000000;stroke-width:0.22074071px;stroke-linecap:butt;stroke-linejoin:miter;stroke-opacity:1"
       d="M 0.58495895,32.092416 C 63.708724,32.250284 63.965843,32.408152 63.965843,32.408152 L 63.837288,26.56699 47.124268,26.251247 46.995713,0.36066253 15.626673,0.20279458 15.498108,25.146162 l -14.91314905,0 z"
       id="path3009"
       inkscape:connector-curvature="0" />
    <path
       sodipodi:type="arc"
       style="fill:#000000;fill-opacity:1;fill-rule:nonzero;stroke:#000000;stroke-opacity:0.46153846"
       id="path3846"
       sodipodi:cx="305.59219"
       sodipodi:cy="326.71985"
       sodipodi:rx="3.5496454"
       sodipodi:ry="4.1950355"
       d="m 308.28231,323.98291 a 3.5496454,4.1950355 0 1 1 -0.006,-0.009"
       sodipodi:start="5.5724093"
       sodipodi:end="11.85281"
       sodipodi:open="true"
       transform="matrix(0.24176736,0,0,0.26514874,-43.874639,-40.136464)" />
    <path
       transform="matrix(0.24176736,0,0,0.26514874,-41.013528,-40.177064)"
       sodipodi:type="arc"
       style="fill:#000000;fill-opacity:1;fill-rule:nonzero;stroke:#000000;stroke-opacity:0.46153846"
       id="path3846-1"
       sodipodi:cx="305.59219"
       sodipodi:cy="326.71985"
       sodipodi:rx="3.5496454"
       sodipodi:ry="4.1950355"
       d="m 308.28231,323.98291 a 3.5496454,4.1950355 0 1 1 -0.006,-0.009"
       sodipodi:start="5.5724093"
       sodipodi:end="11.85281"
       sodipodi:open="true"
       inkscape:transform-center-x="-0.97908559" />
    <path
       sodipodi:type="arc"
       style="fill:#ffffff;fill-opacity:1;fill-rule:nonzero;stroke:#000000;stroke-opacity:0.46153846"
       id="path2995"
       sodipodi:cx="289.13477"
       sodipodi:cy="137.62056"
       sodipodi:rx="30.333334"
       sodipodi:ry="31.301418"
       d="m 312.12306,117.19882 a 30.333334,31.301418 0 1 1 -0.0552,-0.066"
       sodipodi:start="5.5724093"
       sodipodi:end="11.85281"
       sodipodi:open="true"
       transform="matrix(0.24176736,0,0,0.26514874,-50.510493,-5.2516659)" />
    <path
       sodipodi:type="arc"
       style="fill:#ffffff;fill-opacity:1;fill-rule:nonzero;stroke:#000000;stroke-opacity:0.46153846"
       id="path2997"
       sodipodi:cx="386.91135"
       sodipodi:cy="136.32979"
       sodipodi:rx="29.365248"
       sodipodi:ry="34.52837"
       d="m 409.16597,113.80272 a 29.365248,34.52837 0 1 1 -0.0534,-0.0728"
       sodipodi:start="5.5724093"
       sodipodi:end="11.85281"
       sodipodi:open="true"
       transform="matrix(0.24176736,0,0,0.26514874,-50.510493,-5.2516659)" />
    <path
       sodipodi:type="arc"
       style="fill:#000000;fill-opacity:1;fill-rule:nonzero;stroke:#000000;stroke-opacity:0.46153846"
       id="path3808"
       sodipodi:cx="283.00354"
       sodipodi:cy="264.11703"
       sodipodi:rx="10.648936"
       sodipodi:ry="12.585107"
       d="m 291.0739,255.90623 a 10.648936,12.585107 0 1 1 -0.0194,-0.0265"
       sodipodi:start="5.5724093"
       sodipodi:end="11.85281"
       sodipodi:open="true"
       transform="matrix(0.24176736,0,0,0.26514874,-49.330515,-36.355701)" />
    <path
       sodipodi:type="arc"
       style="fill:#000000;fill-opacity:1;fill-rule:nonzero;stroke:#000000;stroke-opacity:0.46153846"
       id="path3810"
       sodipodi:cx="385.29788"
       sodipodi:cy="269.28015"
       sodipodi:rx="9.680851"
       sodipodi:ry="10.648936"
       d="m 392.63457,262.33255 a 9.680851,10.648936 0 1 1 -0.0176,-0.0225"
       sodipodi:start="5.5724093"
       sodipodi:end="11.85281"
       sodipodi:open="true"
       transform="matrix(0.30284956,0,0,0.34211766,-73.489498,-57.937519)" />
    <path
       transform="matrix(0.24176736,0,0,0.26514874,-51.202844,-5.8954599)"
       sodipodi:open="true"
       sodipodi:end="11.85281"
       sodipodi:start="5.5724093"
       d="m 422.35175,100.86181 a 44.209221,54.858158 0 1 1 -0.0804,-0.11563"
       sodipodi:ry="54.858158"
       sodipodi:rx="44.209221"
       sodipodi:cy="136.65248"
       sodipodi:cx="388.84753"
       id="path2999"
       style="fill:#9dd6d7;fill-opacity:0.33204633000000000;fill-rule:nonzero;stroke:#000000;stroke-opacity:0.83783782"
       sodipodi:type="arc" />
    <path
       transform="matrix(0.24176736,0,0,0.26514874,-50.890776,-5.3820853)"
       sodipodi:open="true"
       sodipodi:end="11.85281"
       sodipodi:start="5.5724093"
       d="m 426.97624,181.91253 a 6.4539008,5.8085108 0 1 1 -0.0117,-0.0122"
       sodipodi:ry="5.8085108"
       sodipodi:rx="6.4539008"
       sodipodi:cy="185.70213"
       sodipodi:cx="422.08511"
       id="path3001"
       style="fill:#9dd6d7;fill-opacity:0.33204633;fill-rule:nonzero;stroke:#000000;stroke-opacity:0.46153846"
       sodipodi:type="arc" />
    <path
       transform="matrix(0.24176736,0,0,0.26514874,-50.890776,-5.3820853)"
       sodipodi:open="true"
       sodipodi:end="11.85281"
       sodipodi:start="5.5724093"
       d="m 432.53004,195.15682 a 4.8404255,6.7765956 0 1 1 -0.009,-0.0143"
       sodipodi:ry="6.7765956"
       sodipodi:rx="4.8404255"
       sodipodi:cy="199.57802"
       sodipodi:cx="428.86169"
       id="path3003"
       style="fill:#9dd6d7;fill-opacity:0.33204633;fill-rule:nonzero;stroke:#000000;stroke-opacity:0.46153846"
       sodipodi:type="arc" />
    <path
       transform="matrix(0.24176736,0,0,0.26514874,-50.890776,-5.3820853)"
       sodipodi:open="true"
       sodipodi:end="11.85281"
       sodipodi:start="5.5724093"
       d="m 438.10413,212.35802 a 5.8085108,6.1312056 0 1 1 -0.0106,-0.0129"
       sodipodi:ry="6.1312056"
       sodipodi:rx="5.8085108"
       sodipodi:cy="216.35815"
       sodipodi:cx="433.70212"
       id="path3005"
       style="fill:#9dd6d7;fill-opacity:0.33204633;fill-rule:nonzero;stroke:#000000;stroke-opacity:0.46153846"
       sodipodi:type="arc" />
    <path
       transform="matrix(0.24176736,0,0,0.26514874,-50.890776,-5.3820853)"
       sodipodi:open="true"
       sodipodi:end="11.85281"
       sodipodi:start="5.5724093"
       d="m 442.62186,228.94142 a 5.8085108,7.4219861 0 1 1 -0.0106,-0.0156"
       sodipodi:ry="7.4219861"
       sodipodi:rx="5.8085108"
       sodipodi:cy="233.78369"
       sodipodi:cx="438.21985"
       id="path3007"
       style="fill:#9dd6d7;fill-opacity:0.33204633;fill-rule:nonzero;stroke:#000000;stroke-opacity:0.46153846"
       sodipodi:type="arc" />
    <path
       style="fill:#000000;fill-opacity:1;stroke:#000000;stroke-width:1px;stroke-linecap:butt;stroke-linejoin:miter;stroke-opacity:1"
       d="m 27.727273,48.454545 c 1.356462,0.03389 3.350614,0.657176 3.545455,2 0.187714,1.293704 -1.52367,2.308037 -2.727273,2.818182 -2.232029,0.946043 -4.993795,0.826691 -7.272727,0 -2.932466,-1.063762 -7.181818,-6 -7.181818,-6 0,0 3.382419,1.657832 5.181818,2.181818 1.564086,0.455463 3.206872,1.057952 4.818182,0.818182 1.340433,-0.199462 2.281593,-1.85203 3.636363,-1.818182 z"
       id="path3771"
       inkscape:connector-curvature="0"
       sodipodi:nodetypes="aaaacaaa" />
    <path
       style="fill:#000000;fill-opacity:1;stroke:#000000;stroke-width:1px;stroke-linecap:butt;stroke-linejoin:miter;stroke-opacity:1"
       d="m 35.052566,48.394509 c -1.356462,0.03389 -3.350614,0.657176 -3.545455,2 -0.187714,1.293704 1.52367,2.308037 2.727273,2.818182 2.232029,0.946043 4.993795,0.826691 7.272727,0 2.932466,-1.063762 7.181818,-6 7.181818,-6 0,0 -3.382419,1.657832 -5.181818,2.181818 -1.564086,0.455463 -3.206872,1.057952 -4.818182,0.818182 -1.340433,-0.199462 -2.281593,-1.85203 -3.636363,-1.818182 z"
       id="path3771-1"
       inkscape:connector-curvature="0"
       sodipodi:nodetypes="aaaacaaa" />
  </g>
</svg>
